-vsync is deprecated. Use -fps_mode
Input #0, mov,mp4,m4a,3gp,3g2,mj2, from 'summaries/videos/lXEnnoXX-nA/input.mp4':
  Metadata:
    major_brand     : mp42
    minor_version   : 0
    compatible_brands: isommp42
    creation_time   : 2025-06-19T13:31:15.000000Z
    encoder         : Google
  Duration: 00:38:24.07, start: 0.000000, bitrate: 127 kb/s
  Stream #0:0[0x1](und): Video: h264 (Main) (avc1 / 0x31637661), yuv420p(tv, bt709, progressive), 640x360 [SAR 1:1 DAR 16:9], 77 kb/s, 25 fps, 25 tbr, 12800 tbn (default)
      Metadata:
        creation_time   : 2025-06-19T13:31:15.000000Z
        handler_name    : ISO Media file produced by Google Inc. Created on: 06/19/2025.
        vendor_id       : [0][0][0][0]
  Stream #0:1[0x2](eng): Audio: aac (HE-AAC) (mp4a / 0x6134706D), 44100 Hz, stereo, fltp, 47 kb/s (default)
      Metadata:
        creation_time   : 2025-06-19T13:31:15.000000Z
        handler_name    : ISO Media file produced by Google Inc. Created on: 06/19/2025.
        vendor_id       : [0][0][0][0]
Stream mapping:
  Stream #0:0 -> #0:0 (h264 (native) -> mjpeg (native))
Press [q] to stop, [?] for help
[Parsed_showinfo_1 @ 0x13170f980] config in time_base: 1/12800, frame_rate: 25/1
[Parsed_showinfo_1 @ 0x13170f980] config out time_base: 0/0, frame_rate: 0/0
[Parsed_showinfo_1 @ 0x13170f980] n:   0 pts:1664000 pts_time:130     duration:    512 duration_time:0.04    fmt:yuv420p cl:left sar:1/1 s:640x360 i:P iskey:1 type:I checksum:CA16A3DB plane_checksum:[97A7EF90 4742350B B6A37F31] mean:[90 128 128] stdev:[66.1 6.7 4.9]
[Parsed_showinfo_1 @ 0x13170f980] color_range:tv color_space:bt709 color_primaries:bt709 color_trc:bt709
Output #0, image2, to 'summaries/videos/lXEnnoXX-nA/keyframes/kf_%04d.jpg':
  Metadata:
    major_brand     : mp42
    minor_version   : 0
    compatible_brands: isommp42
    encoder         : Lavf61.7.100
  Stream #0:0(und): Video: mjpeg, yuv420p(pc, bt709, progressive), 640x360 [SAR 1:1 DAR 16:9], q=2-31, 200 kb/s, 25 fps, 25 tbn (default)
      Metadata:
        creation_time   : 2025-06-19T13:31:15.000000Z
        handler_name    : ISO Media file produced by Google Inc. Created on: 06/19/2025.
        vendor_id       : [0][0][0][0]
        encoder         : Lavc61.19.101 mjpeg
      Side data:
        cpb: bitrate max/min/avg: 0/0/200000 buffer size: 0 vbv_delay: N/A
[Parsed_showinfo_1 @ 0x13170f980] n:   1 pts:2046464 pts_time:159.88  duration:    512 duration_time:0.04    fmt:yuv420p cl:left sar:1/1 s:640x360 i:P iskey:0 type:P checksum:ADCC9480 plane_checksum:[AEEED13F 79185DC7 7D9E656B] mean:[142 129 127] stdev:[90.8 4.8 4.1]
[Parsed_showinfo_1 @ 0x13170f980] color_range:tv color_space:bt709 color_primaries:bt709 color_trc:bt709
[Parsed_showinfo_1 @ 0x13170f980] n:   2 pts:2520576 pts_time:196.92  duration:    512 duration_time:0.04    fmt:yuv420p cl:left sar:1/1 s:640x360 i:P iskey:0 type:P checksum:4E39142D plane_checksum:[057AF9B5 C3882FE8 41DFEA72] mean:[146 130 126] stdev:[84.6 4.7 4.1]
[Parsed_showinfo_1 @ 0x13170f980] color_range:tv color_space:bt709 color_primaries:bt709 color_trc:bt709
frame=    3 fps=0.0 q=1.6 size=N/A time=00:03:16.96 bitrate=N/A speed= 391x    frame=    3 fps=3.0 q=1.6 size=N/A time=00:03:16.96 bitrate=N/A speed= 195x    frame=    3 fps=2.0 q=1.6 size=N/A time=00:03:16.96 bitrate=N/A speed= 130x    frame=    3 fps=1.5 q=1.6 size=N/A time=00:03:16.96 bitrate=N/A speed=97.7x    frame=    3 fps=1.2 q=1.6 size=N/A time=00:03:16.96 bitrate=N/A speed=78.1x    frame=    3 fps=1.0 q=1.6 size=N/A time=00:03:16.96 bitrate=N/A speed=65.1x    [Parsed_showinfo_1 @ 0x13170f980] n:   3 pts:17105920 pts_time:1336.4  duration:    512 duration_time:0.04    fmt:yuv420p cl:left sar:1/1 s:640x360 i:P iskey:1 type:I checksum:4F01BD1B plane_checksum:[C40CFED0 48B47988 975D44B4] mean:[53 128 128] stdev:[44.4 3.5 3.9]
[Parsed_showinfo_1 @ 0x13170f980] color_range:tv color_space:bt709 color_primaries:bt709 color_trc:bt709
[Parsed_showinfo_1 @ 0x13170f980] n:   4 pts:17711104 pts_time:1383.68 duration:    512 duration_time:0.04    fmt:yuv420p cl:left sar:1/1 s:640x360 i:P iskey:0 type:P checksum:E28DE730 plane_checksum:[099EAB01 31BECD0A ED7B6F16] mean:[55 128 128] stdev:[51.6 3.5 2.6]
[Parsed_showinfo_1 @ 0x13170f980] color_range:tv color_space:bt709 color_primaries:bt709 color_trc:bt709
frame=    5 fps=1.4 q=1.6 size=N/A time=00:23:03.72 bitrate=N/A speed= 392x    [Parsed_showinfo_1 @ 0x13170f980] n:   5 pts:18440704 pts_time:1440.68 duration:    512 duration_time:0.04    fmt:yuv420p cl:left sar:1/1 s:640x360 i:P iskey:0 type:B checksum:78D52ABB plane_checksum:[7E39B47D F37D040A B5B47225] mean:[165 129 128] stdev:[91.3 2.3 1.5]
[Parsed_showinfo_1 @ 0x13170f980] color_range:tv color_space:bt709 color_primaries:bt709 color_trc:bt709
[Parsed_showinfo_1 @ 0x13170f980] n:   6 pts:19576832 pts_time:1529.44 duration:    512 duration_time:0.04    fmt:yuv420p cl:left sar:1/1 s:640x360 i:P iskey:0 type:B checksum:A7FC928E plane_checksum:[74C5A538 5250AE05 0FD03F42] mean:[142 128 128] stdev:[91.3 4.3 2.8]
[Parsed_showinfo_1 @ 0x13170f980] color_range:tv color_space:bt709 color_primaries:bt709 color_trc:bt709
frame=    7 fps=1.7 q=1.6 size=N/A time=00:25:29.48 bitrate=N/A speed= 379x    frame=    7 fps=1.5 q=1.6 size=N/A time=00:25:29.48 bitrate=N/A speed= 337x    [Parsed_showinfo_1 @ 0x13170f980] n:   7 pts:22631424 pts_time:1768.08 duration:    512 duration_time:0.04    fmt:yuv420p cl:left sar:1/1 s:640x360 i:P iskey:0 type:P checksum:2C48153D plane_checksum:[2D0BC3DD 478BDB11 D6577631] mean:[131 131 127] stdev:[92.5 8.4 3.7]
[Parsed_showinfo_1 @ 0x13170f980] color_range:tv color_space:bt709 color_primaries:bt709 color_trc:bt709
[Parsed_showinfo_1 @ 0x13170f980] n:   8 pts:22682112 pts_time:1772.04 duration:    512 duration_time:0.04    fmt:yuv420p cl:left sar:1/1 s:640x360 i:P iskey:0 type:P checksum:C792C04D plane_checksum:[C53D7071 3D32245E 101E2B7E] mean:[150 131 126] stdev:[89.4 11.3 4.8]
[Parsed_showinfo_1 @ 0x13170f980] color_range:tv color_space:bt709 color_primaries:bt709 color_trc:bt709
[Parsed_showinfo_1 @ 0x13170f980] n:   9 pts:22949888 pts_time:1792.96 duration:    512 duration_time:0.04    fmt:yuv420p cl:left sar:1/1 s:640x360 i:P iskey:0 type:P checksum:7BB4FA40 plane_checksum:[4297C2CC ADB215F5 6B68217F] mean:[150 131 126] stdev:[89.4 11.3 4.9]
[Parsed_showinfo_1 @ 0x13170f980] color_range:tv color_space:bt709 color_primaries:bt709 color_trc:bt709
[Parsed_showinfo_1 @ 0x13170f980] n:  10 pts:24502272 pts_time:1914.24 duration:    512 duration_time:0.04    fmt:yuv420p cl:left sar:1/1 s:640x360 i:P iskey:0 type:P checksum:30149569 plane_checksum:[08241093 4C9987F1 EE8EFCD6] mean:[145 131 126] stdev:[89.8 11.7 5.6]
[Parsed_showinfo_1 @ 0x13170f980] color_range:tv color_space:bt709 color_primaries:bt709 color_trc:bt709
[Parsed_showinfo_1 @ 0x13170f980] n:  11 pts:24956416 pts_time:1949.72 duration:    512 duration_time:0.04    fmt:yuv420p cl:left sar:1/1 s:640x360 i:P iskey:0 type:P checksum:643509A4 plane_checksum:[7B5AE92A 0E281941 935B072A] mean:[106 131 126] stdev:[86.2 9.7 5.1]
[Parsed_showinfo_1 @ 0x13170f980] color_range:tv color_space:bt709 color_primaries:bt709 color_trc:bt709
[Parsed_showinfo_1 @ 0x13170f980] n:  12 pts:24961536 pts_time:1950.12 duration:    512 duration_time:0.04    fmt:yuv420p cl:left sar:1/1 s:640x360 i:P iskey:0 type:B checksum:C6059EAE plane_checksum:[EE38C951 7D7E39EC D3119B62] mean:[154 131 126] stdev:[89.2 9.5 4.7]
[Parsed_showinfo_1 @ 0x13170f980] color_range:tv color_space:bt709 color_primaries:bt709 color_trc:bt709
[Parsed_showinfo_1 @ 0x13170f980] n:  13 pts:25001472 pts_time:1953.24 duration:    512 duration_time:0.04    fmt:yuv420p cl:left sar:1/1 s:640x360 i:P iskey:0 type:B checksum:25FFA0C7 plane_checksum:[914C7206 EAF744E9 08CCE9C9] mean:[159 131 126] stdev:[89.4 9.6 4.8]
[Parsed_showinfo_1 @ 0x13170f980] color_range:tv color_space:bt709 color_primaries:bt709 color_trc:bt709
[Parsed_showinfo_1 @ 0x13170f980] n:  14 pts:25018880 pts_time:1954.6  duration:    512 duration_time:0.04    fmt:yuv420p cl:left sar:1/1 s:640x360 i:P iskey:0 type:B checksum:E09DB30D plane_checksum:[50346FF2 CB2D491E B6A7F9EE] mean:[158 131 126] stdev:[88.6 9.6 4.8]
[Parsed_showinfo_1 @ 0x13170f980] color_range:tv color_space:bt709 color_primaries:bt709 color_trc:bt709
frame=   15 fps=3.0 q=1.6 size=N/A time=00:32:34.64 bitrate=N/A speed= 387x    [Parsed_showinfo_1 @ 0x13170f980] n:  15 pts:26544128 pts_time:2073.76 duration:    512 duration_time:0.04    fmt:yuv420p cl:left sar:1/1 s:640x360 i:P iskey:0 type:B checksum:B5423704 plane_checksum:[7A3777D5 C50D7F78 AAAF3FA8] mean:[34 128 128] stdev:[36.0 2.1 1.6]
[Parsed_showinfo_1 @ 0x13170f980] color_range:tv color_space:bt709 color_primaries:bt709 color_trc:bt709
[Parsed_showinfo_1 @ 0x13170f980] n:  16 pts:26772992 pts_time:2091.64 duration:    512 duration_time:0.04    fmt:yuv420p cl:left sar:1/1 s:640x360 i:P iskey:1 type:I checksum:8EB824AD plane_checksum:[4B62F989 C50DAAFF 09598007] mean:[56 128 128] stdev:[51.3 3.5 2.8]
[Parsed_showinfo_1 @ 0x13170f980] color_range:tv color_space:bt709 color_primaries:bt709 color_trc:bt709
frame=   17 fps=3.1 q=1.6 size=N/A time=00:34:51.68 bitrate=N/A speed= 377x    [out#0/image2 @ 0x13170e350] video:504KiB audio:0KiB subtitle:0KiB other streams:0KiB global headers:0KiB muxing overhead: unknown
frame=   17 fps=2.9 q=1.6 Lsize=N/A time=00:34:51.68 bitrate=N/A speed= 355x    
